<svg id="Capa_1" data-name="Capa 1" xmlns="http://www.w3.org/2000/svg" xmlns:xlink="http://www.w3.org/1999/xlink" viewBox="0 0 72 56"><defs><style>.cls-1{fill:#e7ddff;}.cls-2{fill:#d1c1f2;}.cls-3{fill:url(#Degradado_sin_nombre_5);}</style><linearGradient id="Degradado_sin_nombre_5" x1="39.97" y1="34.15" x2="39.97" y2="31.48" gradientUnits="userSpaceOnUse"><stop offset="0" stop-color="#fbb03b"/><stop offset="0.03" stop-color="#fbaa39"/><stop offset="0.38" stop-color="#fd6221"/><stop offset="0.67" stop-color="#fe2d0f"/><stop offset="0.88" stop-color="#ff0c04"/><stop offset="1" stop-color="red"/></linearGradient></defs><path class="cls-1" d="M38.67,52.86l.4-.1.23-.06.28-.06.32-.07.17,0,.19,0c.51-.09,1.14-.18,1.85-.24s1.52-.08,2.39-.09l1.35,0,1.43,0c1,0,2,.07,3.07.07a25.35,25.35,0,0,0,3.24-.15l.21,0h.09l.11,0,.42-.06.4-.07.2,0,.21,0c.54-.11,1.08-.25,1.62-.4l.4-.12.4-.13.19-.07.2-.07.39-.15.76-.31.38-.17.37-.18a16.12,16.12,0,0,0,1.42-.78c.23-.13.45-.28.68-.42l.32-.23.16-.11.16-.11c.84-.61,1.61-1.26,2.36-1.86s1.47-1.16,2.16-1.63a12.49,12.49,0,0,1,2-1.15,8.25,8.25,0,0,1,1.71-.54,6.52,6.52,0,0,1,1.16-.11h0a7.23,7.23,0,0,0-1.14.16,7.76,7.76,0,0,0-1.67.6,11.39,11.39,0,0,0-1.94,1.2c-.67.49-1.36,1.07-2.08,1.7s-1.47,1.3-2.29,2l-.16.12-.16.12-.32.24c-.22.15-.44.31-.68.46a15.47,15.47,0,0,1-1.43.86l-.37.19-.38.19c-.25.13-.52.24-.78.36l-.4.17-.2.08-.2.08-.4.15-.41.14c-.55.18-1.11.34-1.67.47l-.21.06-.22,0-.42.09-.42.08-.1,0h-.12l-.21,0a29.89,29.89,0,0,1-3.34.28c-1.08,0-2.12,0-3.1,0H45.84l-1.32,0c-.84,0-1.6.09-2.27.17s-1.25.18-1.71.28l-.17,0-.16,0-.29.07-.24.07-.2,0-.39.12a.73.73,0,0,1-.91-.44.67.67,0,0,1,.46-.86Z"/><path class="cls-1" d="M28.83,52.25h2.56l.41,0,.21,0,.22,0,.45,0,.48-.06c.64-.09,1.33-.22,2.06-.38l.55-.13.28-.08.28-.08.29-.08.28-.09.29-.09.29-.09.58-.2.58-.23.58-.24.58-.26.29-.14a2.53,2.53,0,0,0,.29-.14l.57-.29c.38-.2.75-.42,1.11-.65a9.54,9.54,0,0,0,1-.73l.13-.1.12-.11.23-.2c.15-.15.3-.29.44-.44a9.38,9.38,0,0,0,1.4-2,8.83,8.83,0,0,0,.48-1,9.09,9.09,0,0,0,.35-1,9.23,9.23,0,0,0,.21-1,8.24,8.24,0,0,0,.1-1,9.25,9.25,0,0,0-.06-1.7,9.58,9.58,0,0,0-.27-1.29c-.11-.35-.2-.63-.28-.81l-.12-.28.13.28a7.36,7.36,0,0,1,.32.79,10.25,10.25,0,0,1,.34,1.29,9.92,9.92,0,0,1,.15,1.72c0,.32,0,.65-.06,1s-.1.69-.17,1-.18.72-.3,1.09-.28.73-.45,1.1a9.88,9.88,0,0,1-1.37,2.11L44,48.1l-.24.23a1.36,1.36,0,0,1-.12.12l-.12.1a12.1,12.1,0,0,1-1.06.83c-.36.25-.74.49-1.12.72l-.58.33-.29.15-.29.16-.59.29-.59.28-.59.26-.59.23-.29.11-.3.11-.29.11-.29.09-.29.09a1.52,1.52,0,0,1-.28.09l-.57.17c-.75.2-1.47.37-2.14.49l-.49.08-.48.07-.23,0-.22,0-.42,0-.21,0-.2,0-.37,0-.67,0H28.81a.63.63,0,0,1-.65-.6.63.63,0,0,1,.64-.61Z"/><path class="cls-1" d="M56.45,45.87l-.28.28c-.09.09-.2.2-.34.32l-.22.21-.12.11-.13.12c-.18.16-.38.34-.6.52l-.35.29L54,48c-.52.42-1.13.87-1.82,1.34s-1.47.94-2.31,1.4l-.65.35-.67.33-.35.16-.17.08-.09.05-.09,0-.36.15-.18.08-.18.08a30.32,30.32,0,0,1-3.09,1.1l-.4.11-.41.11-.41.11-.21,0-.1,0-.1,0-.42.09-.21,0-.21,0-.42.09-.21,0-.21,0-.42.08-.43.06-.42.07-.43,0-.21,0-.21,0-.43,0-.42,0-.42,0-.43,0h-.42l-.42,0H34c-.27,0-.54,0-.8-.06l-.4,0-.39,0-.38,0-.38-.06-.37-.06L31,54.09c-.24,0-.48-.1-.71-.15l-.35-.07-.34-.09c-.45-.11-.88-.24-1.29-.36-.82-.26-1.55-.53-2.19-.8l-.23-.1-.22-.1-.43-.2L24.81,52l-.34-.17-.58-.32-.41-.25-.26-.16-.08-.05.07-.14.1,0,.29.08.21.06.25.07.63.17.78.2.44.11.23.06.25.06.25,0,.25.06.54.12.28.06.14,0,.15,0,.59.11c.81.14,1.69.28,2.62.39s1.91.2,2.93.26h.38l.38,0,.4,0h2.8l.41,0h.2l.21,0,.81-.06.41,0,.41-.05a28,28,0,0,0,3.21-.6,30.75,30.75,0,0,0,3-.9c1-.34,1.88-.72,2.74-1.12s1.64-.82,2.34-1.23l.52-.31.25-.15.24-.15.23-.15.23-.15.43-.28.39-.28.37-.26.63-.47.14-.11.13-.1.23-.19L56,46l.31-.25Z"/><path class="cls-2" d="M59.79,43.74l.09-.09.27-.28.26-.28.08-.09.33-.37.27-.33.32-.39c.17-.21.32-.41.45-.59v0h0a.28.28,0,0,1,.24.1.21.21,0,0,1,.07.14.48.48,0,0,1,0,.21,1.34,1.34,0,0,1-.07.27,1,1,0,0,1-.07.15.54.54,0,0,1-.07.13l-.37.26c-.41.29-.83.59-1.26.87l-.17.12-.27.17-.37.24Z"/><path class="cls-2" d="M58.06,42.41l.07-.18c0-.16.11-.32.16-.48s.09-.27.13-.4l0-.08.07-.23V41c0-.06,0-.12,0-.18s.07-.31.1-.45v0a1.06,1.06,0,0,0,0-.19l0-.21v0a.6.6,0,0,1,.3-.1h.08a.36.36,0,0,1,.23.18.75.75,0,0,1,.09.39l-.15.26-.19.3a.57.57,0,0,1-.08.13l-.11.19-.21.33-.16.25,0,.05-.25.37-.11.17-.08.1,0,.06-.12.18Z"/><path class="cls-2" d="M54.86,47.13a2.56,2.56,0,0,0,.07-.36l.06-.33a.36.36,0,0,1,0-.1l0-.15.11-.74.08-.63,0-.27.05-.47,0-.38,0-.39.09-.76.06-.37V42l0-.19c0-.19.06-.38.1-.56l0-.16c0-.21.09-.43.14-.63v0a5.61,5.61,0,0,1,.18-.62c0-.1.07-.2.11-.29a.36.36,0,0,0,0-.09l0,0,.06-.14A2.57,2.57,0,0,1,58,37.83h.1c.16,0,.27.16.32.47l0,.17a.25.25,0,0,0,0,.08v.1c0,.12,0,.26,0,.41s0,.16,0,.24l0,.24c0,.2-.06.37-.09.53a15,15,0,0,1-.7,2.37c-.15.4-.32.8-.48,1.18l-.26.55-.08.17s0,.05,0,.08l-.12.25.22.13.28-.37.29-.39.15-.2.14-.21.31-.42.29-.43.08-.1.07-.11.15-.22.15-.23a1.37,1.37,0,0,0,.13-.2l.27-.42.06-.1.19-.3s.14-.24.16-.26l.08-.13.2-.35,0-.09c.05-.08.1-.16.14-.24l.3-.52a3.32,3.32,0,0,1,.17-.31,1.56,1.56,0,0,1,.17-.25,1.54,1.54,0,0,1,.2-.22,1.66,1.66,0,0,1,.43-.32,1,1,0,0,1,.52-.15.67.67,0,0,1,.28.06.75.75,0,0,1,.4.66,1.49,1.49,0,0,1,0,.54,1.23,1.23,0,0,1-.09.29,1.59,1.59,0,0,1-.15.29l-.21.33c-.09.14-.22.32-.37.52a2.34,2.34,0,0,1-.2.27l-.31.41a1.13,1.13,0,0,1-.1.13l-.2.24-.16.2-.08.1-.08.09-.36.4A1.62,1.62,0,0,1,60,43l-.19.2-.19.2-.09.1-.1.1-.39.39-.4.37-.06,0-.14.13-.2.17-.39.33-.38.29.15.2.26-.13.08-.05.2-.11.57-.32c.39-.24.81-.49,1.22-.76.84-.54,1.69-1.14,2.38-1.62l.07-.06.45-.32.25-.17.24-.16.43-.27.1-.06.1-.06.18-.09a1.17,1.17,0,0,1,.47-.15c.08,0,.16,0,.18.19s0,.24,0,.36v.18a.28.28,0,0,0,0,.09s0,.06,0,.09a3.1,3.1,0,0,1-.17.7,1.26,1.26,0,0,1-.07.16.89.89,0,0,1-.08.17c-.05.11-.12.22-.18.33l-.11.16-.12.16a2.51,2.51,0,0,1-.26.31l-.14.15-.14.14h0l-.32.28a6.29,6.29,0,0,1-.71.52c-.27.18-.57.34-.79.46s-.61.29-.85.39l-.22.09-.1,0-.11,0-.45.16-.22.07-.22.06a3.6,3.6,0,0,1-.44.12l-.44.11-.44.09-.43.08h-.1l-.11,0-.21,0L57,47l-.19,0h-.2l-.72.06h-1Z"/><path class="cls-2" d="M63,39s0,0,0-.07a1.12,1.12,0,0,0-.62-1,1.06,1.06,0,0,0-.46-.1,1.54,1.54,0,0,0-.72.2l-.06,0L61,37.76l-.13-.54c-.05-.18-.1-.37-.14-.56l-.07-.28-.07-.28,0-.11c-.17-.71-.34-1.44-.43-2.11a4.84,4.84,0,0,1-.06-.5,4.44,4.44,0,0,1,0-.49v-.23c0-.08,0-.16,0-.23l0-.21a.43.43,0,0,0,0-.11l0,0V32a2.23,2.23,0,0,1,.13-.39l.08-.15,0,0a1,1,0,0,1,.1-.17,2.14,2.14,0,0,1,.28-.32,2.48,2.48,0,0,1,.37-.29.27.27,0,0,1,.14-.05c.14,0,.27.18.36.33s0,.09.07.14a1.16,1.16,0,0,1,.06.15l.13.37c0,.06,0,.13.05.21A.85.85,0,0,1,62,32V32c0,.15.07.31.1.48a14.69,14.69,0,0,1,.14,2.25,1.47,1.47,0,0,1,0,.21v.48c0,.06,0,.13,0,.19l0,.59a1.94,1.94,0,0,1,0,.24l0,.51.25.05.12-.4,0-.08a.65.65,0,0,0,0-.13l.06-.21c0-.15.09-.29.13-.44l.12-.45c.06-.2.11-.4.16-.6s0-.21.08-.31v0a.24.24,0,0,1,0-.08l.07-.33.07-.29c0-.05,0-.1,0-.16l.08-.42.05-.2s0-.08,0-.12.08-.44.08-.44l0-.18s0-.07,0-.1V32c0-.21.07-.39.1-.53s0-.08,0-.11l0-.09c0-.05,0-.09,0-.13a2,2,0,0,1,.07-.26,1.89,1.89,0,0,1,.11-.25,1.56,1.56,0,0,1,.26-.39l.16-.14.17-.09a.65.65,0,0,1,.26-.06h.08a.52.52,0,0,1,.3.14.57.57,0,0,1,.13.14.78.78,0,0,1,.11.18,1.69,1.69,0,0,1,.13.48,2.42,2.42,0,0,1,0,.27,2.54,2.54,0,0,1,0,.29.39.39,0,0,1,0,.14l0,.09s0,.07,0,.11-.1.35-.16.56l0,0,0,.12-.06.17-.14.45s0,.09,0,.13l-.09.25-.14.39-.06.16-.12.28-.14.34,0,.07-.09.2c-.11.25-.22.5-.35.74l0,.09-.18.34c-.07.15-.15.28-.23.42l-.11.2-.08.13,0,.06L63,37.3l.21.14c.12-.12.25-.26.37-.4l.19-.21.2-.24.2-.24.14-.16.33-.42.14-.18c.42-.53.82-1.08,1.2-1.62.12-.15.22-.3.33-.45l.34-.46a.76.76,0,0,1,.08-.11,1,1,0,0,0,.08-.11l.15-.2.29-.36.11-.11,0,0,.12-.13c.24-.23.37-.26.42-.26s.08,0,.15.12a2.41,2.41,0,0,1,.21.5,4,4,0,0,1,.09.52c0,.09,0,.18,0,.27a2.45,2.45,0,0,1,0,.27,4.11,4.11,0,0,1-.11.55l0,.07,0,.06-.05.14c0,.09-.07.18-.11.28s-.08.18-.13.27a1.82,1.82,0,0,1-.15.27c-.11.19-.23.37-.35.54s-.27.34-.42.51A10.6,10.6,0,0,1,65,37.88l-.28.19-.27.16h0l-.56.32-.55.28L63,39Zm1.58-3.71.19-.41.07-.15.11-.28,0-.12a2.49,2.49,0,0,0,.11-.29l.15-.4.07-.2a.84.84,0,0,0,.07-.19l.21-.64a.27.27,0,0,1,.12,0,.21.21,0,0,1,.12,0,.26.26,0,0,1,.11.1.54.54,0,0,1,.07.17,1.31,1.31,0,0,1,0,.52l0,.06c-.15.21-.31.42-.46.64l-.55.74-.46.61Zm-1.92-.44V34c0-.15,0-.3,0-.45v-.07a.86.86,0,0,0,0-.16l0-.22c0-.15,0-.29,0-.42l0-.21,0-.2v0a.46.46,0,0,1,.29-.18h0a.32.32,0,0,1,.21.09.79.79,0,0,1,.2.31l-.06.34-.05.24-.11.5,0,.17C62.82,34.07,62.72,34.45,62.62,34.85Z"/><path class="cls-2" d="M65.78,30.24l-.08-.13L65.62,30a1,1,0,0,0-.2-.2,1.07,1.07,0,0,0-.5-.22H64.8a1.06,1.06,0,0,0-.42.09.89.89,0,0,0-.25.14l-.11.09a.52.52,0,0,0-.11.1v0l-.1-.16-.07-.11-.28-.43-.14-.22L63.22,29a.31.31,0,0,1,0-.1c-.11-.16-.2-.31-.29-.45l-.15-.23-.14-.23-.27-.45L62.06,27a1.51,1.51,0,0,1-.11-.22l-.12-.22c-.07-.15-.14-.29-.19-.43l0-.06,0-.05s0-.07,0-.11l-.08-.21a2.92,2.92,0,0,1-.1-.4s0-.06,0-.09,0-.07,0-.11a1.37,1.37,0,0,1,0-.19,2.1,2.1,0,0,1,.08-.74,2.17,2.17,0,0,1,.15-.35,2.76,2.76,0,0,1,.24-.35.18.18,0,0,1,.14-.08h0l.14.06.08.06.09.08a3.6,3.6,0,0,1,.41.51c.14.21.27.45.43.75l.11.22,0,.05a.89.89,0,0,1,.08.17c.07.15.13.31.2.48l.1.24.05.13,0,.08v0l.18.51,0,.13,0,.13.08.26.11.38,0,.12.13.49a.31.31,0,0,0,0,.08l0,.14.06.23.25,0v-.38c0-.13,0-.26,0-.39l0-.53c0-.11,0-.21,0-.31v-.21l0-.22,0-.42,0-.3s0-.2,0-.2l0-.34,0-.22a.13.13,0,0,1,0-.06v-.1l-.05-.37,0-.39s0-.07,0-.1l0-.15c-.07-.42-.1-.68-.11-.78a1.45,1.45,0,0,1,.13-.89A.68.68,0,0,1,64.8,22h.08a.76.76,0,0,1,.52.27,1.68,1.68,0,0,1,.36.88c0,.12,0,.42,0,.83v1.48l0,.43V26l0,.33,0,.45,0,.22,0,.22,0,.11c0,.26-.07.5-.12.74s0,.27-.08.4l0,.1,0,.09-.05.18.25.08.1-.22a1,1,0,0,1,.07-.15l0-.08.2-.49,0-.13.3-.8.26-.74,0-.09.06-.2.07-.21q.09-.29.18-.54L67,25,67,25l.08-.26c.08-.25.17-.5.25-.71s.05-.14.07-.21a4.11,4.11,0,0,1,.3-.68l.07-.12.07-.09a.35.35,0,0,1,.12-.1l0,0a.21.21,0,0,1,.12.07,1.76,1.76,0,0,1,.31.38,2.13,2.13,0,0,1,.23.42,2.67,2.67,0,0,1,.2.95,2.26,2.26,0,0,1,0,.26c0,.1,0,.18,0,.26s0,.35-.09.54,0,.18-.07.27l0,.13,0,.07,0,.07q-.09.27-.21.54a2.38,2.38,0,0,1-.12.27c0,.09-.09.18-.14.27s-.19.35-.3.53l-.34.5a5.46,5.46,0,0,1-.36.48l-.38.46,0,0-.15.17-.2.21L66,30l-.1.09-.09.09,0,0ZM66,26.73a23.39,23.39,0,0,0,.13-2.63.25.25,0,0,1,.15-.05h.05a.39.39,0,0,1,.22.19,1.33,1.33,0,0,1,.14.45c0,.11-.08.23-.11.34a1.72,1.72,0,0,0-.07.21l-.06.17-.13.39-.07.21a1.27,1.27,0,0,1-.06.18Zm-1.9-.29-.09-.24A1,1,0,0,0,64,26l-.32-.76c0-.11-.09-.2-.13-.3l0-.07-.18-.33v0a.37.37,0,0,1,.2-.22l.09,0a.27.27,0,0,1,.14,0,.67.67,0,0,1,.25.21l.06.53,0,.24,0,.38c0,.32.06.66.08,1Z"/><path class="cls-2" d="M63.61,21.34l-.79-.65-.09-.09-.11-.08-.2-.17c-.14-.12-.27-.24-.4-.34l-.18-.17-.2-.18-.36-.34-.11-.12L61,19a4.47,4.47,0,0,1-.29-.35l-.06-.08,0-.05,0,0-.12-.17a2.91,2.91,0,0,1-.18-.35c0-.05,0-.11-.07-.17a1.54,1.54,0,0,1-.05-.17,1.48,1.48,0,0,1,0-.35v-.18a.2.2,0,0,0,0-.07v0s0-.06,0-.09a1.3,1.3,0,0,1,.11-.37c0-.08.07-.1.13-.1a.7.7,0,0,1,.3.1,1.62,1.62,0,0,1,.24.14,2,2,0,0,1,.26.2c.08.07.18.15.28.25l.15.14a1.85,1.85,0,0,1,.14.14c.22.23.42.46.62.69l.6.78.56.8.47.74.24-.11c-.08-.19-.17-.41-.26-.65l0-.06a.76.76,0,0,1,0-.11l-.08-.18-.14-.35-.06-.15a1.8,1.8,0,0,1-.08-.21l-.16-.36a2.29,2.29,0,0,0-.1-.23c-.06-.15-.13-.31-.2-.46l-.28-.63c-.1-.2-.19-.37-.26-.53L62.37,16l0-.09-.11-.24a1.33,1.33,0,0,1-.12-.42.72.72,0,0,1,0-.19,1,1,0,0,1,0-.18.57.57,0,0,1,.3-.46.39.39,0,0,1,.18,0,.79.79,0,0,1,.39.12l.15.12a1,1,0,0,1,.15.14,1.47,1.47,0,0,1,.24.4,1.43,1.43,0,0,1,.11.26l0,.09,0,.07.1.28.2.58c.06.22.13.45.2.69s.1.39.15.59a1,1,0,0,1,0,.17l.09.39.06.28,0,.11.07.38,0,.19s0,.09,0,.13v.06c0,.25.06.49.08.71H65c0-.24,0-.53.07-.9l0-1v-.38c0-.22,0-.44,0-.66h0V15.76c0-.15,0-.29,0-.41a3.31,3.31,0,0,1,0-.34v0a2.43,2.43,0,0,1,0-.3c0-.21.11-.34.19-.34l.09,0a2.65,2.65,0,0,1,.39.26l.09.08.08.08.15.17a2.81,2.81,0,0,1,.26.38c0,.07.07.14.1.22a2,2,0,0,1,.08.22,3.37,3.37,0,0,1,.12.48,2.34,2.34,0,0,1,0,.26v.11h0a.62.62,0,0,1,0,.13,4.86,4.86,0,0,1,0,.54,3.74,3.74,0,0,1,0,.55c0,.18-.06.37-.1.56s-.09.38-.14.55-.11.36-.17.54-.07.18-.1.26l-.05.13,0,.1v0c-.13.31-.29.63-.45,1s-.27.49-.4.7a1,1,0,0,0-.43-.11h-.14a.93.93,0,0,0-.51.26Zm-.55-2.9-.24-.3,0-.07a2.11,2.11,0,0,0-.19-.23,3.47,3.47,0,0,0-.25-.29l-.24-.27h0L61.85,17l0,0a.32.32,0,0,1,.1-.22.21.21,0,0,1,.14,0,.58.58,0,0,1,.32.12c0,.1.1.2.15.32l.05.12.24.52.23.55.08.17Zm1.69-.32a18.69,18.69,0,0,0-.61-2.18.21.21,0,0,1,.15-.08h0a.35.35,0,0,1,.22.11,1,1,0,0,1,.14.15l.06.1a.2.2,0,0,1,0,.08v1.82Z"/><path class="cls-2" d="M61.73,14.47l-.57-.25-.83-.37-.85-.4-.12-.06-.09-.05-.2-.1L58.69,13l-.18-.11h0l-.17-.1L58,12.56l-.15-.12-.08-.07-.06,0a2.85,2.85,0,0,1-.23-.26,1.27,1.27,0,0,1-.18-.27v0l-.06-.12-.06-.15a1.55,1.55,0,0,1-.06-.65c0-.07,0-.09.07-.1h.11l.18,0A4.3,4.3,0,0,1,58,11l.31.15.32.19a14.47,14.47,0,0,1,1.41,1l.34.28.29.24.64.56.19-.16c-.48-.63-1.11-1.44-1.66-2.11l-.4-.48-.18-.21-.11-.12-.06-.07-.42-.49-.07-.09,0-.08-.09-.16a1,1,0,0,1-.09-.32.59.59,0,0,1,0-.27.36.36,0,0,1,.12-.18.44.44,0,0,1,.21-.08h0a.66.66,0,0,1,.23,0,1.91,1.91,0,0,1,.32.16l.15.13.08.07,0,0,0,0,.39.55,0,.06.1.15.16.24.34.55A17.37,17.37,0,0,1,61.87,13l.25-.07c0-.21-.09-.45-.17-.78v-.05l-.21-.82c-.15-.58-.32-1.18-.47-1.7v0c0-.14-.07-.27-.1-.39a3,3,0,0,1-.09-.35A4.06,4.06,0,0,1,61,8.25a1.2,1.2,0,0,1,0-.19A.23.23,0,0,1,61,8s0,0,.06,0h.06a2.07,2.07,0,0,1,.72.34l.16.12a.92.92,0,0,1,.14.14,2.78,2.78,0,0,1,.26.32,3.28,3.28,0,0,1,.22.37,2,2,0,0,1,.09.2,1.8,1.8,0,0,1,.08.21c.05.14.1.29.14.44a1.55,1.55,0,0,1,0,.23,2,2,0,0,1,0,.24,3.7,3.7,0,0,1,.06.48c0,.08,0,.16,0,.25v.24c0,.31,0,.64,0,1s-.07.57-.13.91a6.58,6.58,0,0,1-.15.67.85.85,0,0,0-.23,0,.72.72,0,0,0-.35.08.82.82,0,0,0-.41.39Zm-2-2.77-.28-.21-.13-.1-.1-.06-.05,0c-.19-.13-.37-.24-.54-.34h0a.23.23,0,0,1,0-.2.21.21,0,0,1,.15-.07h.12l.12,0,.29.33.2.25.12.15.25.3.12.16ZM61.27,11l-.33-.56c-.09-.16-.18-.3-.27-.44l-.05-.08-.17-.26-.05-.08,0-.05a.16.16,0,0,1,.09-.09h0a.38.38,0,0,1,.17,0,1.1,1.1,0,0,1,.27.23c0,.14.08.27.12.42l0,.15c0,.21.11.42.17.63l.06.22Z"/><path class="cls-2" d="M52.51,4.69h-.95a6,6,0,0,1-.65-.06h-.08l-.23,0-.28-.07-.26-.08-.12-.06h0l-.09,0A1.22,1.22,0,0,1,49.46,4a.85.85,0,0,1-.14-.19.84.84,0,0,1-.1-.22s0,0,0,0a.42.42,0,0,1,.2-.07h.4l.55.06.15,0,.15,0,.32.06.33.07.17,0,.16,0,.64.17.16,0,.09,0,.34.11.1-.23-.21-.1-.16-.09-.06,0-.46-.23-.28-.15-.08,0-.12-.06L51.13,3l-.21-.11-.14-.07-.08,0-.36-.18-.45-.22A.94.94,0,0,1,49.5,2a.35.35,0,0,1,0-.32.41.41,0,0,1,.3-.15h.05a1.16,1.16,0,0,1,.49.13l.07,0,.09.05a2.29,2.29,0,0,1,.27.17l.36.22.06,0,.13.09.21.14.43.3.12.08.06,0,.25.2.42.32,0,0,0,0,.09.08.18.16.19-.16-.18-.23,0,0L53,3.2l-.65-.77-.11-.13L52.05,2l-.22-.26-.11-.14-.1-.11-.36-.44L51.13.9a.41.41,0,0,1-.05-.09.35.35,0,0,1,0-.08C51,.58,51,.54,51,.54s0,0,0,0l.25,0h0a1.35,1.35,0,0,1,.28,0,1.73,1.73,0,0,1,.53.2l.12.08.12.09.24.21a1.7,1.7,0,0,1,.22.24c.09.1.15.18.21.26a6.62,6.62,0,0,1,.37.59l.08.15,0,.08,0,.06v0c0,.1.09.21.13.32s.16.41.24.62.09.3.13.44a.79.79,0,0,0-.5.26.74.74,0,0,0-.14.52h-.89ZM51.28,3.4l-.51-.11-.12,0-.13,0-.24,0a.22.22,0,0,1,0-.1c0-.06.1-.1.22-.11l.1,0,.19.09.35.18Zm.68-1-.27-.19c-.22-.16-.43-.29-.62-.41l0,0s0,0,0-.05l.1,0a.6.6,0,0,1,.27.07l.06.06,0,0,0,0,.15.18Z"/><path class="cls-2" d="M58,8.72l-.6-.11L57,8.53h-.05l-.36-.06-.41-.09-.2,0-.1,0-.1,0A5.79,5.79,0,0,1,55,8.07l-.12,0L54.62,8l-.33-.14L54,7.65l-.26-.17a2.09,2.09,0,0,1-.22-.2,2.46,2.46,0,0,1-.17-.22,1.29,1.29,0,0,1-.19-.55.09.09,0,0,1,0-.07s.06,0,.21,0h.05a2.54,2.54,0,0,1,.47.07l.14,0,.15,0,.31.11a13.57,13.57,0,0,1,1.42.57l.69.35.17.08.15.08.31.16.14-.2-.21-.16L57,7.42l-.09-.08L56.46,7l-.24-.19L56,6.59l-.47-.36-.45-.33-.2-.15-.06,0-.12-.09-.46-.33-.13-.12L54,5a1,1,0,0,1-.14-.24.38.38,0,0,1,0-.39.38.38,0,0,1,.32-.13h.07a1.25,1.25,0,0,1,.31.07l.15.08.15.11.45.38.11.11.24.22,0,0,.37.36.42.44.22.23.15.18,0,.06L57.3,7l.08.1.1.13.16.21.22-.12L57.72,7l-.08-.16-.09-.17L57.17,6l-.43-.76-.35-.61-.16-.31-.15-.29a2.46,2.46,0,0,1-.19-.45c-.06-.21,0-.26,0-.27h.06a1.81,1.81,0,0,1,.69.14,1.87,1.87,0,0,1,.3.17,2.77,2.77,0,0,1,.29.22l.26.28a3.58,3.58,0,0,1,.23.31,4,4,0,0,1,.2.35,2.69,2.69,0,0,1,.18.38,7.66,7.66,0,0,1,.28.81V6l0,.08,0,.1c0,.07,0,.14.05.21s0,.28.07.42,0,.28.06.4l0,.39c0,.19,0,.38,0,.59a.78.78,0,0,0-.43.16A.79.79,0,0,0,58,8.72Zm-2.41-2-.28-.12h0L55,6.5l-.54-.19h0a.23.23,0,0,1,0-.16c0-.08.17-.09.22-.09h.08l.31.22.18.14.11.08.07.06.32.23Zm1.14-.87-.39-.41c-.25-.25-.48-.47-.68-.65a.13.13,0,0,1,0-.08h.08a.66.66,0,0,1,.37.15l.15.26.11.19c.09.16.18.33.28.49Z"/><path class="cls-1" d="M52.05,39.71,52,40a3.19,3.19,0,0,1-.09.31l-.06.2,0,.11a.36.36,0,0,0,0,.11c-.06.15-.11.33-.18.51l-.11.29-.13.31c-.17.43-.38.9-.64,1.41s-.57,1.05-.92,1.6l-.27.42-.3.42-.15.21L49,46l0,.05,0,0-.17.22-.08.1-.08.11a21,21,0,0,1-1.51,1.66l-.21.2-.21.2-.22.19-.11.1,0,0-.06.05-.22.19-.11.09-.11.09-.23.19-.12.09-.12.09-.23.18-.24.18a2.07,2.07,0,0,1-.24.17l-.24.17-.12.09-.12.08-.24.17-.25.16-.25.16-.25.15-.12.08-.06,0-.07,0-.25.15-.12.07-.14.07-.24.13-.26.13-.26.13-.12.06-.07,0-.06,0-.52.22-.26.1-.25.1-.26.08-.25.09-.25.08-.25.08-.5.13-.24.07-.24,0c-.32.08-.63.14-.92.19a16.39,16.39,0,0,1-1.64.21H34l-.35,0h-.28v-.11h.07l.21,0,.15,0,.19,0,.44-.09.56-.13.31-.07.16,0,.17,0,.18,0,.18,0,.37-.1.19-.06.1,0,.1,0,.41-.12c.55-.17,1.14-.36,1.75-.59s1.25-.49,1.9-.78l.06,0,.06,0,.12-.06.24-.11.25-.11.26-.12.12-.06.12-.06.25-.12.06,0,.06,0,.13-.07.25-.13.24-.13.25-.14.24-.14.13-.07.12-.07.48-.3.23-.16.23-.16A20.17,20.17,0,0,0,48,46.11a19.32,19.32,0,0,0,1.29-1.56c.38-.52.72-1,1-1.51l.2-.35a1.62,1.62,0,0,0,.1-.18l.1-.16.09-.17L50.9,42l.16-.32.15-.29c0-.1.09-.19.13-.28l.22-.49a.37.37,0,0,1,0-.11l0-.11.07-.19a3.11,3.11,0,0,0,.12-.3l.1-.25Z"/><path class="cls-2" d="M53.34,37.34l0-.09.07-.25.06-.26,0-.09.06-.33.06-.29,0-.34c0-.18,0-.35.07-.51h0a.26.26,0,0,1,.19,0,.18.18,0,0,1,.09.07.32.32,0,0,1,.08.13.76.76,0,0,1,.06.18s0,.08,0,.12v.1c0,.09-.09.18-.13.28l-.47.94-.06.12c0,.07-.07.13-.1.19l-.15.27Z"/><path class="cls-2" d="M51.8,37.07l0-.14c0-.11,0-.23-.07-.34a2.46,2.46,0,0,0-.07-.29v-.06l0-.16v0l0-.13a2.81,2.81,0,0,0-.1-.31v0l0-.12-.05-.15v0a.39.39,0,0,1,.15-.16l.05,0a.25.25,0,0,1,.2,0,.58.58,0,0,1,.2.21v1.23l0,.3V37a.25.25,0,0,1,0,.08v.2Z"/><path class="cls-2" d="M51.52,41a1.52,1.52,0,0,0-.09-.25l-.08-.22a.14.14,0,0,1,0-.07l0-.1-.19-.49-.18-.41-.07-.18L50.7,39l-.1-.25-.11-.25-.22-.5-.1-.25,0-.06,0-.06,0-.13c0-.12-.1-.25-.14-.37l0-.11a3.73,3.73,0,0,1-.14-.44v0a3.69,3.69,0,0,1-.11-.45,1.52,1.52,0,0,1,0-.21.13.13,0,0,1,0-.06v0a.38.38,0,0,1,0-.1,1.7,1.7,0,0,1,.55-1.42l.06,0c.1-.05.22,0,.37.19a.36.36,0,0,1,.07.1.1.1,0,0,1,0,0,.1.1,0,0,0,0,.05l.14.26.08.15a1.11,1.11,0,0,0,.07.16l.13.36a9.81,9.81,0,0,1,.42,1.68c.05.3.09.6.13.88l0,.42a.57.57,0,0,0,0,.13v.07l0,.19h.18c0-.1,0-.2,0-.31l0-.33,0-.17v-.18l0-.35,0-.36v-.36l0-.2a.92.92,0,0,1,0-.16V35.6s0-.07,0-.1v-.36a1.21,1.21,0,0,0,0-.19v-.41c0-.12,0-.2,0-.25a1.49,1.49,0,0,1,0-.21,1.73,1.73,0,0,1,0-.2,1.24,1.24,0,0,1,.15-.33.74.74,0,0,1,.27-.26.45.45,0,0,1,.19,0,.58.58,0,0,1,.49.28,1.07,1.07,0,0,1,.16.34,1,1,0,0,1,0,.21,1.77,1.77,0,0,1,0,.23c0,.05,0,.15,0,.27s0,.26,0,.44a2,2,0,0,1,0,.23l0,.35a.52.52,0,0,1,0,.11l0,.21,0,.17v.09l0,.09-.07.36a1,1,0,0,0,0,.17l-.05.19,0,.18,0,.09,0,.1-.11.36c0,.12-.07.24-.11.36l0,0a.56.56,0,0,1,0,.12l-.06.17-.12.33-.13.3.16.08.12-.17,0-.06.09-.12.23-.39c.16-.27.32-.55.48-.85.32-.6.63-1.24.88-1.76l0-.06c0-.12.11-.23.16-.34l.09-.18.09-.18.17-.3,0-.07,0-.07a1,1,0,0,1,.08-.11.75.75,0,0,1,.23-.24c.05,0,.11,0,.19.05l.15.22.06.11,0,0a.14.14,0,0,1,0,.06,1.92,1.92,0,0,1,.15.48c0,.05,0,.09,0,.13s0,.09,0,.13a2.25,2.25,0,0,1,0,.26v.14s0,.08,0,.13a2.56,2.56,0,0,1,0,.27l0,.14a.65.65,0,0,1,0,.13h0l-.09.27a4.79,4.79,0,0,1-.26.55,5.14,5.14,0,0,1-.32.54,6.16,6.16,0,0,1-.38.51l-.1.12-.05.06,0,.06-.22.24a.57.57,0,0,0-.11.11l-.11.11-.24.22-.23.2-.24.2-.23.18L53.2,40l-.06,0-.12.08-.23.16-.11.08-.06,0,0,0-.43.27-.1.06-.06,0,0,0-.19.11Z"/><path class="cls-2" d="M53.59,33.4l0,0a.82.82,0,0,0-.73-.39.73.73,0,0,0-.32.09,1,1,0,0,0-.37.35l0,0-.18-.19L51.67,33l-.29-.3-.14-.15-.15-.15L51,32.31c-.35-.38-.72-.78-1-1.16l-.22-.3-.19-.29-.06-.11v0s0-.09-.08-.14a.78.78,0,0,1-.05-.14l0-.07V30a1.31,1.31,0,0,1-.06-.27v-.29a1.4,1.4,0,0,1,.06-.28,1.57,1.57,0,0,1,.12-.3.16.16,0,0,1,.07-.07c.08-.05.23,0,.34.09a.47.47,0,0,1,.09.06l.1.07.2.19.11.11.09.09,0,0,.24.27a12,12,0,0,1,.9,1.34l.07.13.13.23,0,.06.06.13.19.37a1.09,1.09,0,0,1,.08.15l.15.34.18-.06a2.29,2.29,0,0,1-.07-.28l0-.06a.29.29,0,0,0,0-.09l0-.15c0-.1-.05-.2-.08-.31l-.08-.32-.12-.41c0-.08-.05-.15-.07-.22v0l0-.05-.07-.24L51.88,30a.76.76,0,0,1,0-.11l-.1-.29,0-.13,0-.09-.11-.3,0-.11,0-.08v0c-.06-.14-.1-.27-.14-.36a.24.24,0,0,1,0-.08l0-.05a.46.46,0,0,0,0-.09,1.05,1.05,0,0,1,0-.19l0-.18a1.23,1.23,0,0,1,0-.33.69.69,0,0,1,0-.13.47.47,0,0,1,.07-.12.41.41,0,0,1,.14-.12l0,0a.49.49,0,0,1,.24,0l.13,0a.57.57,0,0,1,.13.08,1,1,0,0,1,.25.26.62.62,0,0,1,.1.16l.09.2a.23.23,0,0,0,0,.09l0,.07a.25.25,0,0,0,0,.07c0,.11.06.25.1.39v0a.24.24,0,0,1,0,.08l0,.13.07.32a.3.3,0,0,1,0,.1l0,.18,0,.28s0,.08,0,.12l0,.21,0,.26v.2a5.48,5.48,0,0,1,0,.57v.07a2.44,2.44,0,0,1,0,.27c0,.11,0,.22,0,.33V32c0,.1,0,.2,0,.3l.18,0c0-.11.06-.24.09-.37l0-.19,0-.21,0-.21,0-.14s.05-.34.05-.36a.88.88,0,0,0,0-.16c.07-.46.12-.93.16-1.38,0-.13,0-.26,0-.38s0-.28,0-.4,0-.06,0-.09a.28.28,0,0,1,0-.09,1.1,1.1,0,0,1,0-.18,2.87,2.87,0,0,1,.05-.31s0-.07,0-.1v0a1,1,0,0,1,0-.12c.06-.22.13-.28.16-.3s0,0,.13,0a1.5,1.5,0,0,1,.31.24,2.37,2.37,0,0,1,.25.29l.1.16a1.42,1.42,0,0,1,.08.18,3.18,3.18,0,0,1,.14.37v.1s0,.06,0,.1l0,.2c0,.07,0,.14,0,.21v.22c0,.15,0,.3,0,.44s0,.3-.07.45a6.91,6.91,0,0,1-.65,1.75l-.1.2-.11.19h0c-.07.13-.15.25-.23.38l-.24.35-.12.16Zm-.35-2.78,0-.32s0-.08,0-.12l0-.2v-.09a2.07,2.07,0,0,0,0-.22l0-.29,0-.14a.77.77,0,0,0,0-.15c0-.17-.07-.32-.11-.46l.07-.05.09,0,.1,0,.11.09a1.07,1.07,0,0,1,.18.32v.05c0,.17,0,.35,0,.54l-.07.63-.07.52ZM51.89,31l-.1-.18,0-.06-.1-.16,0-.05,0-.07-.18-.27,0,0-.06-.1-.09-.13L51,29.65l-.09-.12-.09-.11,0,0a.3.3,0,0,1,.11-.21h0a.31.31,0,0,1,.17,0,.73.73,0,0,1,.23.12l.08.24.06.16.11.34,0,.12Z"/><path class="cls-2" d="M52.18,27.11l-.09-.06L52,27a.66.66,0,0,0-.2-.06.62.62,0,0,0-.38,0l-.08,0a.66.66,0,0,0-.22.19.54.54,0,0,0-.1.16.36.36,0,0,0,0,.09l0,.1v0l-.11-.07-.08,0-.33-.18-.16-.09-.11-.06-.07,0-.34-.19-.17-.1-.17-.09-.33-.2-.32-.19-.15-.1-.15-.1-.28-.21,0,0,0,0L48,25.81l-.12-.11a2.08,2.08,0,0,1-.21-.21l0,0,0-.06-.09-.12a1.75,1.75,0,0,1-.21-.48,1.09,1.09,0,0,1,0-.26,1,1,0,0,1,0-.29.11.11,0,0,1,.06-.09s0,0,0,0h.18l.09,0a2.86,2.86,0,0,1,.43.19,5,5,0,0,1,.54.32l.14.1,0,0,.1.08.3.23.15.13.08.06,0,0,0,0,.29.26.07.06.07.07.14.13.21.2.06.07.26.25,0,.05.07.08.12.12.15-.1-.11-.17,0-.06-.15-.24-.21-.32s-.08-.12-.12-.18l-.09-.12-.09-.13L50,25.06l-.12-.18-.09-.11-.14-.2-.09-.13,0,0,0,0-.16-.22-.17-.22,0-.06L49,23.76l-.34-.44a1.06,1.06,0,0,1-.24-.59.45.45,0,0,1,.15-.41l0,0a.6.6,0,0,1,.42,0,1.36,1.36,0,0,1,.54.43l.33.5.06.09,0,.07.15.26.13.24,0,.06,0,0,.08.15.14.28,0,.06.1.21.13.29.07.15.06.14,0,.08c.07.17.13.33.19.49l.09.27,0,.07,0,.06,0,.13.18,0v-.17s0-.07,0-.11V26l-.05-.37v-.09l-.1-.59-.11-.54v-.07l0-.14,0-.16c0-.13-.05-.26-.08-.39l0-.12v-.07l0-.18c0-.18-.07-.36-.1-.52l0-.15a2.85,2.85,0,0,1-.06-.52V22a.25.25,0,0,0,0-.08.19.19,0,0,1,0-.1s0,0,0,0,.06,0,.09,0a1.3,1.3,0,0,1,.33.14,1.75,1.75,0,0,1,.29.18,2.06,2.06,0,0,1,.47.53l.09.16c0,.06.06.11.09.16s.09.23.14.36,0,.12,0,.19l0,.09v.1c0,.13,0,.26.07.4s0,.15,0,.21,0,.14,0,.21,0,.27,0,.42a3.58,3.58,0,0,1,0,.42,3.05,3.05,0,0,1-.05.41c0,.13,0,.26-.07.4v0l0,.15a1.05,1.05,0,0,1,0,.19l-.09.37,0,.08,0,.09v0Zm-1.1-2.25a15.93,15.93,0,0,0-.86-1.66.18.18,0,0,1,.07-.08h0a.28.28,0,0,1,.21,0,.86.86,0,0,1,.24.23l.06.25,0,.15,0,.13.06.28,0,.14,0,.14Zm-1.27.43-.14-.12-.09-.08-.47-.37-.19-.14,0,0-.23-.16h0a.26.26,0,0,1,0-.2l0,0,.1,0a.53.53,0,0,1,.23.05l.23.31a.71.71,0,0,1,.1.14l.17.22c.13.18.27.38.4.58Z"/><path class="cls-2" d="M47.65,22.31l-.72-.15-.09,0-.1,0-.18,0L46.19,22,46,22l-.19,0-.34-.1-.12,0-.21-.07-.3-.12-.07,0,0,0,0,0-.13-.07a1.4,1.4,0,0,1-.24-.15.81.81,0,0,1-.1-.09l-.1-.09a1.56,1.56,0,0,1-.16-.2l-.06-.11a.08.08,0,0,0,0,0v0l0-.06a2,2,0,0,1-.07-.26.09.09,0,0,1,0-.11.44.44,0,0,1,.22,0l.2,0,.23,0,.26.06.14,0,.15,0,.63.23.64.29.63.31.56.31.11-.14-.39-.32,0,0-.07-.06L47,21l-.22-.17-.09-.08-.13-.1-.22-.17-.14-.11-.29-.22-.4-.3-.35-.25L45,19.44l-.06,0-.16-.11a1.14,1.14,0,0,1-.22-.22L44.45,19a.54.54,0,0,1-.05-.11.38.38,0,0,1,0-.38.27.27,0,0,1,.1-.08.49.49,0,0,1,.28-.05l.13,0,.15,0a1.69,1.69,0,0,1,.29.17l.16.13.06,0,0,0,.16.14.33.29.37.36.3.32.09.09.2.21.13.15,0,.07.18.21.09.11.06.07,0,0,.31.41.16-.08c-.08-.16-.17-.34-.28-.58l-.34-.63-.14-.24c-.07-.14-.15-.27-.23-.41h0l-.36-.6-.06-.12,0,0-.08-.14-.14-.25c0-.08-.07-.15-.1-.22v0c0-.07-.06-.13-.08-.19s-.05-.25,0-.27h.07a2,2,0,0,1,.34,0l.08,0,.08,0,.15.06a1.18,1.18,0,0,1,.29.16l.14.09.14.12a2.89,2.89,0,0,1,.24.25l.12.15,0,0,0,0h0a.35.35,0,0,1,0,.08,3.62,3.62,0,0,1,.2.33l.17.35c0,.12.09.25.14.38s.08.26.11.38.06.26.08.39a1.29,1.29,0,0,1,0,.19l0,.1a.17.17,0,0,0,0,.07v0c0,.24,0,.48.07.74s0,.39,0,.56a.6.6,0,0,0-.3.07l-.08.05a.62.62,0,0,0-.23.32ZM46.27,20.7,46,20.59l0,0-.2-.09-.26-.09-.24-.09h0L45,20.22h0a.19.19,0,0,1,0-.16.12.12,0,0,1,.07-.07.45.45,0,0,1,.24,0,1.37,1.37,0,0,1,.21.15l.08,0,.33.25.34.26.11.08ZM47.2,20A13.64,13.64,0,0,0,46,18.82a.14.14,0,0,1,.06-.1h0a.19.19,0,0,1,.17,0l.14.05.07,0,.06,0,.24.42.07.11,0,.07,0,0,.13.23Z"/><path class="cls-2" d="M44,18.68l-.45,0-.64,0-.67,0h-.81l-.13,0-.29,0-.13,0-.08,0,0,0a1.35,1.35,0,0,1-.24-.08l-.21-.11h0l-.08-.05-.09-.07a1.36,1.36,0,0,1-.27-.39c0-.05,0-.07,0-.08l0,0h0a.34.34,0,0,1,.12,0,1.84,1.84,0,0,1,.38,0h.24l.27,0a10.28,10.28,0,0,1,1.22.16l.31.06.27.06.6.14.06-.16c-.53-.23-1.2-.53-1.79-.77l-.42-.16L41,17l-.11,0-.07,0-.43-.17-.07,0-.06,0-.12-.07a1.37,1.37,0,0,1-.17-.17.53.53,0,0,1-.08-.17.38.38,0,0,1,0-.15A.29.29,0,0,1,40,16l0,0,.16-.05h.25l.15,0,.07,0h0l0,0,.44.2,0,0,.12.06.18.1.41.22a13.45,13.45,0,0,1,1.63,1.11l.13-.12-.38-.43,0,0-.42-.44L42,15.83l0,0-.2-.21-.18-.19a2.82,2.82,0,0,1-.26-.32.34.34,0,0,1-.06-.12.14.14,0,0,1,0-.07s0,0,0,0h0a1.36,1.36,0,0,1,.57,0l.14,0a.4.4,0,0,1,.13,0l.28.11.27.16.13.09.12.11.24.23a1.36,1.36,0,0,1,.12.12l.11.13.21.28.1.15h0l0,.06.05.08c.11.19.22.39.32.61a4.35,4.35,0,0,1,.25.6c.06.16.11.31.15.46l-.15.05a.6.6,0,0,0-.19.16.57.57,0,0,0-.11.38ZM41.81,17.6l-.24,0h-.25l-.46,0h0a.18.18,0,0,1-.05-.13.1.1,0,0,1,.06-.09l0,0,0,0,.09,0,.29.12.22.08.12.06.26.1.14.06Zm.69-.91-.4-.24-.33-.18-.06,0-.2-.11-.06,0,0,0a.1.1,0,0,1,0-.08l0,0,.11,0a.65.65,0,0,1,.25.06l.23.21.08.09q.16.15.33.33l.12.11Z"/><path class="cls-2" d="M34.83,15.59l-.16.08-.21.11-.06,0,0,0-.11.05c-.15.07-.29.12-.43.17l-.05,0-.15,0-.2.05-.19,0H33a.88.88,0,0,1-.33-.06l-.15-.07L32.4,16v0s0,0,.09-.11l.05,0,.06,0h0l.12-.06.35-.14.11,0,.1,0,.22-.07.23-.06.12,0,.11,0,.46-.1.12,0h.06l.25,0,0-.17H32.39a.84.84,0,0,1-.37-.09c-.08-.06-.13-.12-.13-.19s.08-.15.13-.18l0,0a.9.9,0,0,1,.35-.08h.35l.3,0h.17l.18,0,.37.05h.16l.23,0,.37.07h.08l.09,0,.16,0,.06-.16-.19-.09h0l-.07,0L34,14.24l-.12-.05-.24-.09L33.37,14l-.12,0-.1,0-.38-.16-.15-.07-.06,0-.06,0c-.11-.07-.11-.11-.11-.11l0,0,.14-.09h0a.75.75,0,0,1,.18-.07,1.7,1.7,0,0,1,.4,0h.1l.11,0,.22,0,.23.08.22.09a4,4,0,0,1,.44.25l.1.07.05,0,0,0h0l.2.15.37.31.24.23a.46.46,0,0,0-.21.32.48.48,0,0,0,.09.36l-.18.1-.11.06Zm-1.22-.4-.35.1-.09,0-.08,0-.16.05a.1.1,0,0,1-.06-.05s0-.09.1-.14h.64Zm.06-.83-.23,0c-.19,0-.37,0-.53-.05h0a0,0,0,0,1,0,0s0,0,.05-.05a.53.53,0,0,1,.19,0l.06,0h0l0,0,.16.06Z"/><path class="cls-2" d="M39.65,16.33l-.41.12-.27.08h0l-.25.08-.28.08-.14,0-.07,0-.07,0-.56.12h-.09l-.17,0-.26,0h-.24a1.6,1.6,0,0,1-.23,0l-.2-.05-.19-.08a1,1,0,0,1-.31-.28s0,0,0,0,0,0,.12-.1h0a1.48,1.48,0,0,1,.32-.11l.1,0,.1,0,.24,0a9,9,0,0,1,1.07-.1h1.06l0-.17-.19,0-.12,0h-.09l-.42-.08-.22,0-.22,0-.43-.07-.39-.06-.18,0h0l-.11,0-.4-.06-.12,0-.12,0-.17-.11a.27.27,0,0,1-.12-.25c0-.09.09-.14.15-.18l0,0,.21,0h.12l.13,0,.42.09.11,0,.23.06,0,0,.35.1.42.14.21.07.16.06.05,0,.41.16.09,0,.1,0,.18.09.09-.15-.2-.14-.1-.07-.12-.08-.48-.3-.53-.33-.44-.27L37,14.19l-.19-.13a2.76,2.76,0,0,1-.28-.22c-.11-.11-.11-.15-.11-.15s0,0,0,0a1.15,1.15,0,0,1,.48-.13h.25l.25.05.26.08a1.57,1.57,0,0,1,.26.13,1.65,1.65,0,0,1,.25.15,1.59,1.59,0,0,1,.25.17c.15.12.3.26.46.41h0l0,.05,0,.05.11.12.19.23.18.23a1.88,1.88,0,0,1,.16.23,3,3,0,0,1,.23.35.52.52,0,0,0-.2.24A.44.44,0,0,0,39.65,16.33Zm-2.2-.46-.21,0h0l-.2,0-.4.06h0a.2.2,0,0,1-.07-.1c0-.06.07-.11.1-.12l.06,0,.27,0,.16,0,.1,0h.06l.28,0Zm.39-.89-.39-.13-.65-.19a.11.11,0,0,1,0-.06.1.1,0,0,1,.05,0,.48.48,0,0,1,.28,0,1.18,1.18,0,0,0,.19.11.57.57,0,0,0,.13.08l.35.22Z"/><path d="M22.71,43.78c1-2.69.55-5.5.66-8.3l-.7-.11,2-3.35V35h1.66l.06.55-1.54-.08s-.1.08-.1.11c0,1.76,0,3.52.08,5.27a2.36,2.36,0,0,0,.18.74.64.64,0,0,0,1.11.26l.4-.29s.08,0,.12,0c-.29.9-1.05,1.17-2.91,1-.36,1.08-1.08,2-.55,3.37a26.54,26.54,0,0,0,3,6.12,4.15,4.15,0,0,0,2.91,1.55,7.47,7.47,0,0,0,6.14-1.87,2.56,2.56,0,0,1,.84-.46c0,.17,0,.41-.12.5a8.22,8.22,0,0,1-6.36,2.4,7.61,7.61,0,0,1-6.14-3.83c-.63-1.1-1.18-2.25-1.76-3.37-.09-.16-.16-.33-.26-.52-.72.62-1.39,1.22-2.08,1.8a10.22,10.22,0,0,1-4.63,2.06,13.67,13.67,0,0,1-9.49-1.36A9.27,9.27,0,0,1,.78,38.45c1.15-4.85,4.35-7.81,9-9.28a21.59,21.59,0,0,1,7.38-.75,1,1,0,0,1,1.07.78q.73,2.52,1.49,5.05Q21.1,39,22.51,43.78ZM6.46,38.25c.15.33.29.66.43,1a3.23,3.23,0,0,0,3.45,2.23c.75,0,1.49-.24,2.24-.34a.89.89,0,0,0,.74-.67q1.75-4.73,3.53-9.44a1.53,1.53,0,0,0-1.46-2.14,27.55,27.55,0,0,0-3.52.3,11.94,11.94,0,0,0-6.8,3.09,10.57,10.57,0,0,0-3,9.72A8.88,8.88,0,0,0,6.63,48.8a11.47,11.47,0,0,0,7.31,1.07,11.42,11.42,0,0,0,7-3.67.76.76,0,0,0,.2-.9,18,18,0,0,1-.64-1.92q-.8-2.6-1.57-5.21a1.2,1.2,0,0,0-.23.06c-1.58,1-3.17,1.93-4.74,2.91a1.07,1.07,0,0,0-.43.51,21,21,0,0,0-.7,2.3c-.19.83.16,1.28,1,1.47.21,0,.41.13.62.2a9.9,9.9,0,0,1-1.47.15c-1.21.17-2.41.39-3.61.58a1.73,1.73,0,0,1-.45-.05L8.75,46c2.85-.13,3.43-2.28,4.1-4.43-.72.12-1.4.25-2.08.34A3.63,3.63,0,0,1,6.46,38.25Zm10.79-6.56c-.08,0-.13.06-.14.09-.93,2.51-1.86,5-2.77,7.55a1.53,1.53,0,0,0,.05.59,1.59,1.59,0,0,0,.59-.08c1.16-.69,2.3-1.4,3.44-2.13a.6.6,0,0,0,.22-.5C18.2,35.37,17.72,33.54,17.25,31.69Z"/><path d="M15.42,24.19a6.35,6.35,0,0,1,.23.7,1.36,1.36,0,0,0,1.16,1.18,2.05,2.05,0,0,0,2.1-.52.76.76,0,0,0-.13-1.09,7.54,7.54,0,0,0-1.25-.83c-.51-.3-1.07-.51-1.55-.85a2.12,2.12,0,0,1-.92-2.33,2,2,0,0,1,1.87-1.62l.31-.07s0,0,0,0c-.8-1.25-1.63-2.46-2.38-3.72-.45-.76-.75-1.61-1.14-2.41a2.19,2.19,0,0,0-1.95-1.4c-1.91-.06-3.82,0-5.77,0V18.7a15.21,15.21,0,0,0,3.2-.48c.62-.23,1.07-1,1.54-1.59a11.45,11.45,0,0,0,.78-1.32l.19.07c0,.19-.09.38-.13.58A18.59,18.59,0,0,0,10.87,19a10.37,10.37,0,0,0,.45,2.53,4.83,4.83,0,0,0,.16.5l-.15.08a5.45,5.45,0,0,1-.41-.57c-.22-.44-.4-.89-.6-1.33A2,2,0,0,0,8,18.94c-.66,0-1.33,0-2,0,0,2,0,4,0,6a.92.92,0,0,0,1,.93,35.81,35.81,0,0,0,4.4-.18,3.09,3.09,0,0,0,2.44-2.4,5.22,5.22,0,0,1,.24-.54l.29.09c-.24,1-.44,2-.72,3a.91.91,0,0,1-1,.61l-9-.07H3l0-.17a1.19,1.19,0,0,1,.29-.12c1-.12,1.16-.31,1.2-1.29,0-1.2,0-2.41,0-3.62q0-4.26-.07-8.52c0-1.29-.05-1.35-1.3-1.69-.08,0-.16-.08-.22-.24.2,0,.39,0,.58,0,3.06,0,6.11,0,9.17,0a9.53,9.53,0,0,0,1.64-.33,13.5,13.5,0,0,0,.14,2.07,12.56,12.56,0,0,0,3.5,6.14,1.34,1.34,0,0,0,.76.23c.42.06.73.21.77.68s.1,1-.34,1.16A6.12,6.12,0,0,0,18,19.39a1.43,1.43,0,0,0-1.13-.08,1.68,1.68,0,0,0-.86.8c-.2.43.08.82.49,1,.61.33,1.26.59,1.85,1a5.06,5.06,0,0,1,1.33,1,2,2,0,0,1-.23,2.6,3.78,3.78,0,0,1-4.36.24A1,1,0,0,1,15.42,24.19Z"/><path d="M35,19.33l2-.65v1.43l.16.12a7.18,7.18,0,0,1,.94-1A2.31,2.31,0,0,1,42,20.51,15,15,0,0,1,42.18,23c0,.48,0,1,0,1.45.07.78-.18,1.8,1.3,1.66l-.16.2H39.56c.08-.11.1-.19.15-.19,1-.2,1.08-.29,1.09-1.31s0-2.29,0-3.44a1.78,1.78,0,0,0-1.53-1.87,1.88,1.88,0,0,0-2,1.68,31.41,31.41,0,0,0,0,4c0,.64.11.64,1,1.16H34.55l0-.15c.1,0,.21-.12.31-.11.68.05.94-.29.93-.95,0-1.51,0-3,0-4.51,0-.56,0-1.09-.8-1.14Z"/><path d="M44.25,38.5a2.85,2.85,0,0,0,1.45,2.69,2.74,2.74,0,0,0,3-.19,1.61,1.61,0,0,1,.64-.28,3.29,3.29,0,0,1-4.57,1.56A4,4,0,0,1,42.83,38a3.49,3.49,0,0,1,2.84-2.88c2.18-.36,3.83,1,3.42,3.43H44.25Zm0-.48c1,0,2,0,3,0a.61.61,0,0,0,.43-.37,1.85,1.85,0,0,0-.84-2,1.68,1.68,0,0,0-2,.24A2.31,2.31,0,0,0,44.27,38Z"/><path d="M33.72,24.82A3.87,3.87,0,0,1,31.3,26.6a3,3,0,0,1-2.24-.69c-2.22-1.53-2.16-5.42.11-6.72a3,3,0,0,1,3.5.18,2.92,2.92,0,0,1,1.09,2.92H28.91a3.15,3.15,0,0,0,1.56,3C31.67,25.9,32.67,25.33,33.72,24.82Zm-4.9-3c1.1,0,2.12,0,3.14,0a.56.56,0,0,0,.4-.31,1.86,1.86,0,0,0-.62-2,2.15,2.15,0,0,0-2.24.19A3.15,3.15,0,0,0,28.82,21.82Z"/><path d="M33.59,40.65a.89.89,0,0,1-.07.34c-.92,1-1.91,1.92-3.41,1.67a3.22,3.22,0,0,1-2.63-2.52,4.29,4.29,0,0,1,.43-3.78A3.11,3.11,0,0,1,33,36.14a3.8,3.8,0,0,1,.52,2.3H28.6a2.87,2.87,0,0,0,1,2.5,2.22,2.22,0,0,0,2,.51A13,13,0,0,0,33.59,40.65Zm-5-2.71c1,0,2.06,0,3.08,0a.46.46,0,0,0,.35-.27,1.76,1.76,0,0,0-1.6-2.28A2.12,2.12,0,0,0,28.59,37.94Z"/><path d="M21.83,24.19c.06.21.11.42.17.63a1.59,1.59,0,0,0,1.18,1.27,2,2,0,0,0,2.05-.49.71.71,0,0,0,0-1.08,6.48,6.48,0,0,0-1.33-.93c-.53-.29-1.13-.47-1.66-.76a2,2,0,0,1-1.14-2.27,1.94,1.94,0,0,1,1.64-1.63,3.9,3.9,0,0,1,2.61.12,1.1,1.1,0,0,1,.38,1.78.64.64,0,0,1-1,0c-.26-.27-.23-.53.14-.77s.11-.48-.12-.65a2.74,2.74,0,0,0-2.37.12A.87.87,0,0,0,22.51,21c.53.33,1.13.54,1.7.82a9.7,9.7,0,0,1,1.38.76,2.08,2.08,0,0,1-.06,3.52,3.65,3.65,0,0,1-3.63.18,1.07,1.07,0,0,1-.68-1.18,4.61,4.61,0,0,1,.36-.95Z"/><path d="M57.42,22.29H52.54a2.9,2.9,0,0,0,1.5,3c1.25.54,2.32.05,3.48-.64a3.5,3.5,0,0,1-4.27,1.69,3.67,3.67,0,0,1-2.17-3.81A3.74,3.74,0,0,1,53.41,19C55.57,18.1,57.65,19.77,57.42,22.29Zm-5.14-.41c1.25,0,2.25,0,3.26,0a.76.76,0,0,0,.49-.44,1.86,1.86,0,0,0-.89-2.05,1.67,1.67,0,0,0-2.17.57A11.74,11.74,0,0,0,52.28,21.88Z"/><path d="M36.35,40.06c0,.21,0,.43,0,.64.06,1.15.15,1.25,1.45,1.38-.23.2-.35.39-.47.4-1.1,0-2.21,0-3.45,0,.16-.21.21-.36.29-.37C34.85,42,35,41.5,35,41c0-2.69,0-5.37,0-8.06,0-.28,0-.55,0-.83,0-.65.08-1.28-.83-1.4l2.16-.82a2.66,2.66,0,0,1,.05.35"/><path d="M49.05,19.94c.08-.32-.2-.5-.58-.61a2.42,2.42,0,0,0-3.24,1.94,6,6,0,0,0,.19,2.67,2.76,2.76,0,0,0,4.27,1.44,2.57,2.57,0,0,1,.82-.38,3,3,0,0,1-1.73,1.38,3.49,3.49,0,0,1-3.73-.55,4,4,0,0,1-1.27-3.92,3.93,3.93,0,0,1,5.25-3,1.21,1.21,0,0,1,.81,1.87.86.86,0,0,1-1.36.12c-.16-.19-.14-.52-.2-.79Z"/><path d="M54.62,36.18c-.15-.49-.63-.63-1.2-.28a2.12,2.12,0,0,0-1,1.79c-.05,1.19,0,2.37,0,3.56,0,.5.15.94.81.86.08,0,.18.12.27.18-.06.07-.12.2-.18.2-1.2,0-2.4,0-3.6,0l0-.17c.11-.06.22-.18.33-.18.68,0,.88-.45.89-1,0-1.52,0-3,0-4.57,0-.33-.36-.65-.61-1.06l1.94-.7v1.41a16.67,16.67,0,0,1,1.91-1.15,1.21,1.21,0,0,1,1.49.51,1.26,1.26,0,0,1-.2,1.47A.9.9,0,0,1,54,36.93a.87.87,0,0,1,0-.69C54,36.14,54.37,36.2,54.62,36.18Z"/><path d="M38.83,35.44l1-.34c.31-.1.63-.18,1.08-.31v1.66c0,1.48,0,3,0,4.44,0,1,.18,1.12,1.22,1.32-.17.14-.27.29-.38.29-1,0-2.1,0-3.15,0-.06,0-.13-.08-.22-.15.09-.08.15-.18.2-.18.85,0,.94-.52.94-1.17,0-1.37,0-2.75,0-4.12,0-.58.16-1.26-.9-1.24Z"/><path class="cls-3" d="M39.42,34.1a.9.9,0,0,1-.36-.65,1,1,0,0,1,.23-.79l.2-.28a1.23,1.23,0,0,0,.25-.9l.43.44a2.6,2.6,0,0,1,.68,1.1,1.14,1.14,0,0,1-.36,1.13.69.69,0,0,0-.12-.58l-.12.32h0a.83.83,0,0,1,0-.22c0-.11,0-.23.08-.34s-.08-.39-.29-.55a1,1,0,0,1-.33.62.48.48,0,0,0-.08.49.58.58,0,0,1,0,.14l-.16-.18Z"/></svg>